<svg id="Layer_1" data-name="Layer 1" xmlns="http://www.w3.org/2000/svg" viewBox="0 0 797.09 796.98"><defs><style>.cls-1{fill:#fff;}.cls-2{fill:#1a74e2;}</style></defs><ellipse class="cls-1" cx="397.83" cy="409.92" rx="244" ry="240.5"/><path class="cls-2" d="M351.89.55c-.8.16-1.43.64-1.43,1s-.72.72-1.68.72-1.35-.4-1.11-.8.16-.8-.32-.8a1.27,1.27,0,0,0-1,.88c-.32,1-21.84,4.94-27.1,4.94-2.07.08-3.58.32-3.35.72s-.47.48-1.59.16-2.07-.16-2.07.32-.72.64-1.6.4-1.59-.08-1.59.32-1,.63-2.07.39c-1.44-.24-2-.08-1.6.48s-.16.64-1.11.4-1.6,0-1.6.56-.63.72-1.59.4-1.59-.16-1.59.24c0,1.11-6.94,2.71-9,2.15-1.12-.32-1.36-.24-.8.16.72.48-.87,1.35-4.62,2.55-3.11,1-5.82,1.59-6.06,1.35s.16-.48,1-.48,1.27-.23.95-.47c-.63-.64-6.13,1.19-6.13,2.07,0,.4-.56.56-1.2.32s-1.19-.08-1.19.4-.56.63-1.2.39-1.2-.07-1.2.4-.55.64-1.19.4-1.2-.08-1.2.48-.32.72-.71.48a.65.65,0,0,0-.9.17.67.67,0,0,0-.1.23c-.16.55-1.43,1-2.79,1s-2.31.32-2.15.64-.64.88-1.91,1.28c-4.95,1.75-5.34,1.91-3.35.63,1.11-.63,1.67-1.19,1.19-1.19-1.11,0-5,2.23-4,2.31s-1.28,1.59-2.39,1.59c-.4,0-.24-.4.4-.79s.79-.8.24-.8a4.12,4.12,0,0,0-2.08,1.19c-.63.64-1.35,1-1.59.72C247,27.5,243,29.5,243,30.29c0,.4-.32.48-.8.24s-.8-.16-.8.32-.72.64-1.59.48-1.44,0-1.12.56.08.72-.72.4-1.27-.16-1.11.39a1.31,1.31,0,0,1-1,1.28c-.64.24-.87,0-.56-.56s.08-.64-1.43,0c-1.12.56-1.83,1.2-1.67,1.52.47.71-3.51,2.55-4.39,2-.72-.4-6.37,2.55-7.25,3.83a4.26,4.26,0,0,1-2.47,1c-2.07.24-7,2.55-7,3.19,0,.24,1.44-.32,3.19-1.2s3.19-1.43,3.19-1.19c0,.8-6.06,3.35-7.09,3-.72-.24-.88,0-.48.64s.32.87-.16.55c-1-.63-9.25,3.75-8.45,4.47.24.32,0,.63-.64.71a11.48,11.48,0,0,0-5.34,1.68c-1.43.79-2.39,1.75-2.15,2.15s0,.56-.64.32a1.61,1.61,0,0,0-1.83.56c-.4.63-.24.79.48.32s.87-.32.48.23a1.26,1.26,0,0,1-1.52.48c-.64-.24-2,.48-3.19,1.6s-2.23,1.67-2.47,1.43-.48-.08-.48.4-1,1.43-2.07,2.23-1.83,1-1.51.4c.48-.72.24-.72-1.12-.08-.87.56-1.67,1.12-1.67,1.36s.4.15.95-.16.64-.24.32.39a1,1,0,0,1-1.35.4c-1-.56-3.27,1.2-2.63,2.15.24.4-.08.48-.64.32a3.87,3.87,0,0,0-2.79,1.2,6.1,6.1,0,0,1-2.63,1.59.8.8,0,0,0-.8.8,1,1,0,0,1-1,.8c-.56,0-2.15,1-3.43,2.23s-1.91,1.75-1.2,1.35c1-.71,1-.63.08.56-.55.8-1.35,1.2-1.75,1s-1.91.72-3.27,2.23-2.23,2.07-1.91,1.43-.4-.07-1.67,1.2-1.92,1.91-1.44,1.2c1.12-1.76-2.55,1.19-6.29,5.1-1.76,1.83-2.63,2.55-2.08,1.67s-.55,0-2.39,2-2.95,2.87-2.39,2-.08-.4-1.51,1a12,12,0,0,1-3,2.63c-.4,0-2.07,1.36-3.83,3.11s-7.17,6.94-12.11,11.64-8.69,9-8.45,9.4.16.56-.32.32c-.8-.48-3.27,1.76-4.62,4.23-.64,1-.56,1,.87,0s1.52-1.12,0,.55c-.79,1-1.75,1.6-2.07,1.44s-3,2.15-5.66,5.34-4.54,5.42-3.9,5.1-.24.72-2,2.31-2.47,2.47-1.59,1.91-.16.56-2.23,2.71-3.67,4.07-3.43,4.47-.16,1.19-1,1.75c-1.27,1-1.27,1-.15-.4.71-1,.79-1.35.23-1a6,6,0,0,0-1.91,2.23c-.72,1.27-.64,1.51.24.95.56-.31-.88,1.28-3.19,3.67s-4.06,4.7-3.82,5.26a1.32,1.32,0,0,1-.48,1.6c-.56.39-.64.15-.24-.56.64-1,.48-1-.64,0-1.59,1.27-1.83,2.87-.32,2,.56-.32.72-.24.32.16a2.63,2.63,0,0,1-1.59.72c-.56,0-.88.63-.88,1.43a1.16,1.16,0,0,1-.93,1.35h-.07c-.63,0-.87.31-.63.79s.16.8-.24.8-1.76,1.51-3,3.27-1.67,3-1,2.63c1.44-.88-1.51,3.66-3.5,5.42-.88.8-1.28,1.43-1,1.43s.08.4-.72.88-1.19,1.12-1,1.59.08.72-.4.72-.64.32-.4.8.16.79-.24.79c-.72,0-3.19,3.35-6.06,8.37-.87,1.44-.87,1.76-.16.8,3.19-4.22,3.59-4.46,1.76-1.19-1.2,2-2.4,3.5-2.87,3.42s-.48.4-.24,1.2.16,1.11-.16.72c-.88-.72-4.55,5.73-3.83,6.85.32.48.08.56-.56.16s-1-.32-.55.72c.32.71.24,1.19-.08,1s-1.28.72-2.08,2.16l-1.43,2.55,1.75-2c1.28-1.59,1.12-.95-.79,3-1.28,2.79-2.71,5-3,5-1,0-4.23,7.18-3.67,8.13.32.48.24.64-.24.4s-1.51,1.12-2.47,3.11c-2.39,4.78-2.15,5.58.24,1.12s2.63-3.67.24,1.11c-1,2-2.07,3.35-2.47,3.11s-.56-.08-.24.48c.8,1.27-.24,4.22-1.28,3.59-.55-.4-.71-.08-.39.71s.08,1.36-.4,1.36-.72.24-.4.48-.08,1-.72,1.67a2.7,2.7,0,0,0-.8,2.31c.24.64.16,1.12-.23,1.12s-1.36,1.51-2.08,3.34c-2,5-2.23,6.06-.87,3.83.63-1.12,1.19-1.75,1.27-1.43,0,1.11-4.3,11.39-4.86,11.63-.32.16-.4.8-.16,1.44s0,1.11-.48,1.11-.64.56-.4,1.2.16,1.19-.32,1.19c-1,0-2.71,4.71-2.07,5.66.24.4.08.72-.32.72-.79,0-2.87,6.3-2.31,6.93.24.16.64-.79,1-2.15s.72-2.31.88-2.15c.39.32-3.83,15.3-5,18.09a5.48,5.48,0,0,0-.32,2.16.82.82,0,0,1-.61,1l-.1,0c-.56,0-.72.64-.4,1.6s.16,1.59-.4,1.59-.72.64-.4,1.59.16,1.6-.4,1.6-.79.64-.55,1.59.08,1.6-.4,1.6-.64.71-.4,1.59.08,1.83-.32,2.07-.56,1.12-.32,2,.16,1.52-.32,1.52-.87.56-.87,1.27.31,1,.63.8-.32,5.42-1.59,12.51-2.23,14-2.23,15.47a6.43,6.43,0,0,1-1.2,3.74c-1.35,1.36-1.59,2.39-.4,1.68s1,3.11-.16,4.22c-.55.56-.63,1-.32,1s.24.56-.31,1.19c-.72.8-.72,1.2-.08,1.2.47,0,.87.88.87,2s-.32,2-.71,2-.64,14-.64,31.49.24,31.48.64,31.48.71.88.71,2-.4,2-.87,2c-.64,0-.64.39.08,1.19.55.64.71,1.2.31,1.2s-.23.4.32,1c1.12,1.12,1.28,4.94.16,4.23-.4-.24-.79-.16-.79.32a1.29,1.29,0,0,0,.79,1c.48.16,1.68,5.82,2.79,12.6s2.23,14,2.63,16.1.4,3.58.08,3.34-.71.16-.71.8.39,1.28.87,1.28.64.63.32,1.51-.16,1.75.32,2,.56,1.2.32,2.07-.08,1.6.4,1.6.63.72.4,1.59,0,1.6.47,1.6.72.71.4,2.07c-.4,1.59-.32,2,.48,1.51s.8-.16.4,1.12c-.32,1-.16,1.67.4,1.67s.71.56.48,1.36-.24,1.51.16,1.75c.63.4,4.94,14.19,4.94,15.78,0,.32-.4.08-.88-.55-.72-1-.8-1-.4.23a11,11,0,0,1,.48,2.4c0,.55.4.47.8-.24.63-.88.71-.64.32,1-.32,1.28-.16,2.15.39,2.15s.64.56.4,1.2-.16,1.2.16,1.2.8,1,.88,2.15.48,2.31,1,2.47a.65.65,0,0,1,.49.78.62.62,0,0,1-.1.22c-.24.4,0,.72.48.72s.8.48.56,1.12-.16,1.27.16,1.43c.56.24,4.86,10.52,4.86,11.64-.08.32-.64-.32-1.27-1.44-1.36-2.23-1.12-1.19.87,3.75.72,1.91,1.68,3.43,2.08,3.43s.47.48.23,1.11a2.34,2.34,0,0,0,.64,2.16,5.29,5.29,0,0,1,1.12,2.07c.16,2.39.4,2.71,1.11,2.23s.88-.16,1.12,3.75a5.85,5.85,0,0,0,.8,2.79c.39.31.47-.24.16-1.36s.39-.4,1.43,1.59a18.14,18.14,0,0,1,2,4.39c0,.4-.55-.16-1.19-1.44-1.68-3.1-2.15-2.71-.56.64.72,1.52,1.67,2.47,2.07,2.23s.56-.08.24.4c-.56,1,1.83,6.54,2.87,6.54.4,0,.48.4.24.79s-.16.8.24.8c1.11,0,5.58,9,5.1,10.28-.24.72,0,.88.64.48s.87-.32.48.24c-.64,1,1.83,5.74,2.94,5.74.32,0,.48.32.16.72s.4,1.59,1.44,2.63a26,26,0,0,1,3.67,5c1,1.75,1.19,2.47.55,1.59-3.19-4.14-3.58-4.46-1.75-1.19,1.2,2,2.39,3.5,2.87,3.42s.56.24.32.88.32,1.59,1.19,2.23,1.44,1.44,1.12,1.68-.08.55.4.55a1.09,1.09,0,0,1,1,1.17v0a1.09,1.09,0,0,0,1,1.19h0c.48,0,.64.24.4.56s.08,1,.88,1.6.87.87.31.63c-.87-.47-.95-.23-.31.88,1,1.91,3.66,5.1,2.87,3.51-.32-.64-.24-.88.07-.56a3.09,3.09,0,0,1,.88,1.67c.24,1.6,2.79,5.26,3.67,5.26.4,0,.48.4.24.8s.08.8.79.8,1.2.4,1,1,.48,2.16,1.59,3.43,1.68,1.84,1.36,1.2-.24-1,.32-.56a1.33,1.33,0,0,1,.48,1.59c-.24.56,1.51,3,3.82,5.26s3.75,4,3.19,3.67c-1.91-1.19.4,2.39,2.71,4.22,1.2,1,1.83,1.68,1.44,1.68s.71,1.35,2.47,2.95,2.47,2.39,1.59,1.83-.16.4,1.59,2.07,2.55,2.55,1.68,1.92.72,1.43,3.5,4.62,6.14,6.38,7.34,7,2.23,1.36,2.23,1.6-.4.16-.8-.08c-1.51-1-.79,1,1,2.63,1,1,2.15,1.51,2.55,1.19s.4-.24.16.24c-.64,1.12,11.63,13.31,12.67,12.52.4-.4.48-.32.08.08-.64.87,2.39,4.46,3.75,4.46.48,0,1.91,1.27,3.11,2.79s2.63,2.63,3,2.31.64,0,.56.56a.85.85,0,0,0,.5,1.09l.06,0c.48,0,2.07,1.28,3.51,2.79s2.39,2.23,2.07,1.6.8.24,2.47,2,2.47,2.47,1.83,1.59.56.16,2.63,2.32,4.07,3.58,4.47,3.34,1.27.16,1.83,1c1,1.27,1,1.27-.48.16s-1.51-1.12-.48.24c1.44,1.83,4.55,3.58,3.59,2.07-.32-.64.72.24,2.31,1.91s3.35,2.79,3.75,2.55a1,1,0,0,1,1.27.48c.4.64.24.72-.55.32-1-.64-1-.48,0,.64,1.19,1.51,2.86,1.83,2,.4-.4-.56-.24-.64.4-.32s.79.87.55,1.11c-.79.8,1.2,2.47,2.4,2,.63-.24,1.11-.08,1,.39a.55.55,0,0,0,.24.74.5.5,0,0,0,.24.06,1.6,1.6,0,0,1,1.2.72c.47.72,7.41,5.74,9.56,7,.8.48,1,.32.56-.47s.16-.24,1.11.87,1.52,1.44,1.2.8.08-.48.72.32,1.27,1.27,1.27.79.56,0,1.2.8,1.19,1.36,1.19,1,.72.16,1.6,1,2.07,1.44,2.55,1.12.64-.24.24.48-.32,1,.71.56c.8-.32,1.2-.24.88.24-.48.79,4,3.42,6.3,3.58a4,4,0,0,1,2.39,1.36c1.35,1.91,6.85,4.7,7.81,4.14.56-.4.64-.16.24.48s-.24.88.48.64c1.51-.56,7.25,2.39,6.69,3.34-.32.48.08.56.88.24,1-.31,1.19-.24.8.4s-.08.8.79.4,1.2-.24.72.56-.32.88.4.4a1.17,1.17,0,0,1,1.51.08c1,1.43,4.94,3.58,5.66,3.11.48-.24.8-.08.8.39s.32.72.72.48c.95-.64,3.34.32,2.87,1.12-.16.32.55,1,1.67,1.51,1.51.64,1.83.64,1.43,0s-.08-.79.56-.56a1.31,1.31,0,0,1,1,1.28c-.16.56.32.72,1.11.4s1.12-.16.8.32.08.71,1.2.4,1.51-.08,1.11.47-.16.8.64.48,1.28-.16,1.28.24c0,.88,4,2.87,4.54,2.31.24-.24,1,.16,1.59.8a2.76,2.76,0,0,0,2.79.64c1-.24,1.44-.16,1.2.24s.4,1.19,1.51,1.75c2.79,1.28,3.51,1,1.12-.32-1.12-.64-1.6-1.11-1.2-1.11,1.12,0,5,2.23,4,2.31s1.27,1.59,2.39,1.59c.48,0,.24-.4-.4-.88-1.59-1.11,1.67-.24,5.58,1.52a15.44,15.44,0,0,0,3.43,1.11c.32-.08.55.24.55.72s.56.72,1.2.4,1.2-.16,1.2.16c0,1,5.58,2.87,8.76,3,3.35.16,17.78,4.3,18.42,5.34.23.4,1,.48,1.75.16s1.35-.08,1.35.48.64.79,1.6.55,1.59-.08,1.59.4.72.48,1.6.24,1.59-.16,1.59.4.64.8,1.59.56,1.6-.08,1.6.4.72.63,1.59.4,1.6-.08,1.6.39.87.56,2.07.32c1.35-.4,1.83-.24,1.51.32s.24.8,1.2.8,1.51-.32,1.27-.64,4,.16,9.33,1.12,11.95,2.07,14.66,2.39,5.42,1,5.9,1.59c1,1.28,3.43,1.52,2.71.32-.24-.4.24-.8,1.12-.8a2.56,2.56,0,0,1,2,.72c.24.4,2.07.56,4.07.32s3.58,0,3.58.4c0,1.27,66.71,1.11,68.63-.08a2.39,2.39,0,0,1,3-.08c1.11.72,1.75.64,3-.16a8.3,8.3,0,0,1,4.3-1.12c1.59,0,9.72-1.19,18.17-2.63s15.07-2.31,14.91-2,.16.64.87.64,1-.4.8-.8c-.32-.56.16-.72,1.51-.32,1.2.24,2.08.16,2.08-.32s.87-.55,2-.31,2,0,2-.48.72-.64,1.6-.4,1.59.08,1.59-.4.72-.64,1.59-.4,1.6,0,1.6-.48a.51.51,0,0,1,.8-.48,2,2,0,0,0,2-.39c1-.8,1.19-.8,1.19.08s.32.71,1.12-.32a3.56,3.56,0,0,1,1.83-1.36c.48,0,4.39-1.11,8.61-2.39s8.53-2.23,9.33-1.91,1.43.16,1.43-.24,1-.72,2.15-.8,2.31-.48,2.47-.95a.7.7,0,0,1,.86-.46.35.35,0,0,1,.14.06c.48.24,1.67-.16,2.71-.8s2-1,2-.72.32.16.72-.48,1.75-1.11,3.11-1.19,2.23-.32,2.07-.64.64-.88,1.91-1.27c5-1.84,5.42-1.92,3.35-.56-2.23,1.43-1.27,1.27,3.83-.8,1.83-.72,3.34-1.67,3.34-2.15s.32-.56.72-.24c.88.48,4.86-1.12,4.86-2,0-.32.56-.56,1.2-.64l2.39-.32c.64-.08,1-.32.8-.64-.32-.47,7.81-4.78,9-4.78.32.08-1,1-3,2-4.46,2.39-3.66,2.63,1.12.24,2-1,3.43-2,3.19-2.39s.08-.4.64-.24,3.18-.79,5.74-2.39,5-2.55,5.49-2.23.56.08.24-.4.56-1.43,2.08-2.15l2.63-1.28-2,1.68-2,1.75,2.55-1.43c1.44-.8,2.39-1.68,2.15-2.08s.24-.39,1-.08c1,.4,1.2.24.72-.55s-.32-.88.32-.48c1,.64,6.21-2.23,7.73-4.23a1.45,1.45,0,0,1,1.91-.47c.56.39.88.31.56-.08s.88-1.6,2.47-2.63c2.23-1.44,2.63-1.6,1.75-.48-1.11,1.35-1.11,1.43.64.48,1-.56,1.59-1.28,1.36-1.68s0-.56.63-.32a1.64,1.64,0,0,0,1.84-.55c.39-.64.24-.8-.48-.32s-.88.32-.48-.24a1.44,1.44,0,0,1,1.67-.48,1.24,1.24,0,0,0,1.63-.67.69.69,0,0,0,0-.13c.24-.72.79-1,1.19-.79s1.6-.56,2.63-1.68,2.31-1.91,2.79-1.67a1,1,0,0,0,1.36-.4h0c.32-.64.24-.72-.32-.4s-1,.4-1,.16.8-.8,1.68-1.35c1.35-.72,1.59-.64,1.11.23-.24.56.08.32.8-.55s1.51-1.52,1.83-1.44.56-.08.56-.48a2.46,2.46,0,0,1,.72-1.43c.4-.4.48-.24.16.4-1,1.67.79,1,3.18-1.2a9.85,9.85,0,0,1,3.43-2.31,5.69,5.69,0,0,0,2.39-1.59c.72-.72.8-1.12.32-.8-1.51.8-1.27.08.32-1.2.88-.79,1.12-.79.72-.16-.88,1.52.72,1.28,2-.31,1-1.2,1-1.28-.08-.64-.72.4-1,.32-.56-.08a3.16,3.16,0,0,1,2-.72c.71,0,1.27-.48,1.11-1s.16-.87.56-.79,1.35-.48,2.07-1.36,1.12-1,.8-.4.48.08,1.75-1.19,2.07-2.07,1.84-1.6.47-.08,1.59-1.19,1.67-1.52,1.2-.8c-1,1.6,3.26-2,7.09-6,1.67-1.75,2.63-2.47,2.07-1.59s-.08.64,1-.64a6.15,6.15,0,0,1,2.87-2.15c.48,0,1.67-1.12,2.87-2.55a16,16,0,0,1,3.9-3.43c.88-.56,1.6-1.35,1.44-1.91s.16-.8.55-.56,2.16-1.11,3.91-3.11,3.51-3.58,3.91-3.58c.79,0,10.6-9.73,10.6-10.6a11.79,11.79,0,0,1,2.63-3c1.35-1.44,1.83-2,1-1.44-1.43,1-1.51,1-.48-.32.64-.71,1.28-1.19,1.52-1,.56.48,4.94-3.59,4.94-4.55,0-.39,1.28-1.83,2.87-3.18,2-1.76,2.55-2.63,1.75-3.11s-.4-.88,1-1.36a9.31,9.31,0,0,0,3.11-2.23c1-1.27,1-1.35,0-.8-.64.32.24-.63,2-2.23s2.87-2.79,2.55-2.87.4-1,1.59-2.07,1.68-1.83,1-1.43-.32-.16.8-1.28,1.67-1.83,1.19-1.59-.16-.24.8-1.12,1.51-1.75,1.44-2.15.47-1,1.35-1.52a3,3,0,0,0,1.59-2.07c0-.72.4-1,1-.64s.72.16.4-.71a2.2,2.2,0,0,1,.88-2.31c1.27-1,1.27-.88.16.55s-1.12,1.52.23.48a3.19,3.19,0,0,0,1.2-2.39c-.16-.72.24-1.19.8-1s1-.55,1-1.43.48-1.59,1-1.59,2.15-1.92,3.67-4.23c2.15-3.35,2.31-3.82.87-2.55l-1.91,1.6,1.83-2.64c1.68-2.39,3.27-3.74,2-1.59-.32.56-.24.64.31.32a1.36,1.36,0,0,0,.48-1.59c-.24-.64.4-1.68,1.44-2.4s1.43-1.27,1-1.27,0-.56.88-1.2,1.28-1.19,1-1.19.08-.72.95-1.6a3.13,3.13,0,0,0,1.12-2.71,1.51,1.51,0,0,1,.56-1.75c.63-.32.79-.24.4.32s-.4,1-.24,1c.79,0,3.1-4.31,3.34-6.22a5.11,5.11,0,0,1,1.76-3.27c2.15-1.83,5.1-7.25,4.54-8.21-.32-.48-.16-.64.24-.4a1,1,0,0,0,1.35-.71c.23-.71.16-1-.39-.72s.08-1.28,1.19-3.51,2.47-4.06,3-4.06.56-.4.32-.8-.16-.8.24-.8c.72,0,3.66-6,3.74-7.49.08-1.75,1.36-4.46,1.92-4.14.32.23,1.19-1,2-2.55,1-2.32,1-2.64.08-1.44a6,6,0,0,0-1.2,2.39c0,.4-.16.56-.39.32-.64-.56,2.94-7.81,3.82-7.81.32,0,.4-.4.16-.8s-.16-.79.24-.79c.64,0,2.63-4,3.91-8,.31-1,.31-1-.48,0-.48.64-.88.8-.88.4,0-1.11,1.59-3.42,1.59-2.39s2.32-2.87,2.32-4c0-.48-.48.08-1.12,1.19s-1.12,1.84-1.2,1.6c0-.8,4.87-13.15,5.66-14,.4-.48.48-1.12.16-1.36s-.08-.55.48-.55.88-.56.56-1.2-.08-1.2.24-1.2c1,0,2.39-4.38,2-6.53-.16-1-.08-1.28.16-.64.4.8,1-.32,2.07-3.11.8-2.39,1.28-4.46,1.12-4.7s-.8,1.2-1.36,3-1.11,3.11-1.27,3c-.32-.32,3.82-14.83,5.1-18a5.52,5.52,0,0,0,.32-2.24.81.81,0,0,1,.64-.94H787c.47,0,.71-.56.39-1.2s0-1.19.4-1.19.72-.72.48-1.6-.08-1.59.4-1.59.64-.72.4-1.6-.08-1.59.4-1.59.63-.88.31-1.91c-.31-1.2-.07-2.15.56-2.39s.72-.64.08-.88-.48-2.55.64-7.81c2.15-10.6,4.78-26.14,4.7-28.62,0-1.19.32-2.39.72-2.63,1-.63,1-87.27,0-87.27-.48,0-.8-1.2-.72-2.63,0-2.79-1.43-11.8-4.3-26.7-1-5.26-1.6-9.49-1.2-9.25s.64-.16.64-.79-.4-1.28-.8-1.28-.63-.88-.32-2,.16-2-.31-2-.64-.71-.4-1.59.08-1.59-.4-1.59-.64-.72-.4-1.6,0-1.59-.48-1.59-.64-.56-.4-1.2.08-1.19-.39-1.19a.83.83,0,0,1-.82-.84.78.78,0,0,1,0-.16,5.44,5.44,0,0,0-.32-2.15c-1.67-3.91-6.14-20.33-5.82-21.2.48-1.36-1-5.9-2-5.9-.32,0-.48-.56-.24-1.2s.08-1.19-.56-1.19-.72-.24-.48-.56a1.1,1.1,0,0,0-.16-1.35c-.79-1-5.66-12.92-5.66-13.87.08-.32.56.32,1.2,1.43,1.36,2.39,1.59,1.68.32-1.11-.56-1.12-1.28-1.84-1.75-1.52s-.48-.24-.16-1.35c.39-1.36.31-1.68-.4-1.2s-.88.32-.56-.16c.56-.87-1.51-6.69-2.63-7.41-1.36-1-7.65-14.75-6.3-13.87.48.24-.16-1.43-1.35-3.75s-2.47-4.46-2.79-4.54a.64.64,0,0,1-.34-.84.86.86,0,0,1,.1-.16.44.44,0,0,0-.4-.72c-.48,0-1.75-1.83-3-4.07s-1.67-3.82-1.19-3.5.63,0,.39-.72-.87-1-1.35-.72-.56.08-.24-.4c.56-1-2.39-6.37-4.54-8.21a5.09,5.09,0,0,1-1.76-3.26c-.24-1.92-2.55-6.22-3.34-6.22-.16,0-.08.4.24,1s.23.63-.32.31a1.42,1.42,0,0,1-.48-1.67c.24-.56-.24-1.75-1.12-2.63s-1.43-1.83-1.19-2-.4-.88-1.36-1.36-1.51-1.43-1.27-2a1.42,1.42,0,0,0-.48-1.67c-.56-.4-.64-.16-.24.47s.32.88-.32.48a1.38,1.38,0,0,1-.64-1.51c.4-1.28-5.42-9.88-7.41-10.92a1.63,1.63,0,0,1-1-2.07c.24-.72,0-1.12-.63-1s-1-.32-.88-1.12-.72-2-1.83-2.86a5.23,5.23,0,0,1-2-2.48c0-.39-.71-1.19-1.59-1.67s-1.51-1.12-1.35-1.51-.56-1.36-1.44-2.16-1.27-1.35-.8-1.11-.08-.48-1.19-1.6-1.52-1.67-.8-1.27.24-.24-1-1.36-2-2.15-1.75-2.39-1-1.51-2.63-3-2.47-2.31-1.83-2c.79.48.71.08-.32-1-.8-1-1.75-1.52-2.07-1.36s-1.12-.24-1.68-1c-.79-.95-.79-1.11-.08-.71,2.08,1.19.8-1-1.83-3.43-1.51-1.36-2.79-2.71-2.79-3.11,0-.88-11.64-12.19-12.11-11.72-.16.24-1.44-.79-2.71-2.23l-2.77-2.68,2.63,2.31c1.36,1.36,2.55,2,2.55,1.52,0-1.12-7.81-8.21-9.08-8.21-.56,0-2-1.2-3.35-2.55l-2.31-2.63,2.39,2c1.36,1,.64.08-1.59-2.23s-4.23-4.21-4.55-4.21a12,12,0,0,1-3.11-2.79c-1.36-1.52-2.78-2.79-3.26-2.79a7.08,7.08,0,0,1-2.71-2.23c-1.12-1.19-1.84-1.59-1.52-1s-.48.08-1.75-1.2c-3.27-3.51-6.94-6.53-6.3-5.18.32.64-.4.08-1.67-1.2s-1.83-1.91-1.44-1.19-1-.48-3-2.63-4.23-3.83-4.63-3.83a9.49,9.49,0,0,1-1.43-.24,2.61,2.61,0,0,1-1.44-.79c-.4-.4-.16-.48.48-.08s1,.32.56-.24a17.54,17.54,0,0,0-4.3-3.11,45.33,45.33,0,0,1-5.74-4c-2.16-2-3.67-2.47-2.71-.87.32.64.24.79-.16.4a2.68,2.68,0,0,1-.72-1.6c0-.56-.64-.87-1.35-.72a2.21,2.21,0,0,1-1.92-.71c-.4-.64-.24-.72.48-.32s.88.32.48-.24a1.32,1.32,0,0,0-1.6-.48c-.55.24-2.31-.88-4-2.47s-3.27-2.63-3.67-2.39-.87-.16-1.11-.88a1.25,1.25,0,0,0-1.56-.83l-.12,0a1.81,1.81,0,0,1-2-1.12,6.58,6.58,0,0,0-2.63-2.47c-1.67-1-1.67-.88-.56.48s1.12,1.35-.56.4c-1-.64-1.51-1.44-1.35-1.76s.16-.56-.24-.48c-1,.24-4.22-1-4.22-1.75,0-1-5.66-4.06-6.54-3.51-.56.4-.64.16-.24-.47.48-.8.32-1-.72-.56-.71.32-1.11.24-.87-.16.4-.72-2-1.84-4.47-2.07a12.52,12.52,0,0,1-4-2.16c-3.91-3-7.81-4.78-8.85-4.14-.48.32-.64.24-.4-.24s-1.51-1.67-3.9-2.87c-5.42-2.63-6.78-2.79-1.92-.16,4.47,2.39,3.67,2.63-1.11.24-2-1-3.35-2.07-3.11-2.47s.08-.56-.32-.32-2.79-.56-5.1-1.83c-2.55-1.36-4.94-2.15-5.82-1.92s-1.27.16-1-.23-.4-1.2-1.52-1.76c-2.79-1.27-3.51-1-1.11.4,2.23,1.36,1.19,1.12-5.34-1.43-2.32-.88-4.07-1.84-3.91-2.16s-.72-.55-2.07-.55a5.07,5.07,0,0,1-3-.88c-.72-1.12-9.65-4.3-10.52-3.83s-17.46-4.22-18.57-5.18a1.73,1.73,0,0,0-1.76-.24c-.63.24-1.11,0-1.11-.55s-.56-.8-1.2-.56a1.29,1.29,0,0,1-1.67-.32,1.29,1.29,0,0,0-1.6-.4c-.63.24-1.11,0-1.11-.4s-.72-.72-1.6-.48-1.59.08-1.59-.39-.72-.64-1.59-.4-1.6.08-1.6-.4-.87-.64-2-.48-2,.08-2-.24-.56-.72-1.28-.72-1,.32-.8.64S476,6.73,470.9,5.78,458.38,3.46,454.4,3s-7.57-1.28-8-1.68a6.08,6.08,0,0,0-3.51-.08c-1.83.32-2.47.24-2.07-.4S429.26,0,399.29,0c-32.2,0-42.16.24-42.64,1s-.95.72-2,.08A5.06,5.06,0,0,0,351.89.55Zm280,73.25c1,1.28,1,1.36-.24.32a4.5,4.5,0,0,1-1.43-1.35c0-.64.62-.24,1.67,1Zm-464.83-.32c-.16.08-1,.72-1.92,1.36-1.51,1.11-1.51,1.11-.47-.24a3.34,3.34,0,0,1,1.91-1.36q.72,0,.48.24Zm524.13,52.37c.8.88,1.27,1.59,1,1.59a6,6,0,0,1-1.84-1.59c-.79-.88-1.27-1.6-1-1.6a6.13,6.13,0,0,1,1.84,1.6ZM722,163.07c1,1.28,1,1.36-.24.32a4.67,4.67,0,0,1-1.44-1.36c0-.63.64-.23,1.68,1Zm9.48,13.79c1,1.27,1.51,2.39,1.28,2.39a12.8,12.8,0,0,1-2.08-2.39c-.95-1.36-1.51-2.39-1.27-2.39a10.07,10.07,0,0,1,2.07,2.39Zm11.16,17.53c.48.88.64,1.6.48,1.6a4.24,4.24,0,0,1-1.28-1.6c-.48-.88-.64-1.59-.48-1.59a4.27,4.27,0,0,1,1.28,1.59ZM285.42,224.6a11.5,11.5,0,0,1,3.74,4.07c1.36,2.47,1.52,4.78,1.52,24.31,0,24.07-.24,25.34-5.5,28.85a10.54,10.54,0,0,1-15.34-4.52c-1.28-2.47-1.44-5.42-1.44-24.15,0-25.83.32-27.1,7.73-29.65C279.44,222.31,281.91,222.61,285.42,224.6Zm239.42,1.5,2.6,2.93v23.71c0,26.8-.16,27.37-6.09,30.21-4.47,2.19-8.85,1.38-12.51-2.27l-3-2.93-.25-23.3c-.16-15.92.09-24,.65-25.5C509.45,221.48,519.11,220,524.84,226.1ZM26.94,253.93c-1,1.6-1.12,1.12-.4-1,.32-.72.72-1.12.88-.88A2.4,2.4,0,0,1,26.94,253.93Zm231.22,14.38c.24,9.56.4,10.52,2.63,14.51a20.58,20.58,0,0,0,18.73,11.23c8.13,0,14.74-4,18.73-11.23,2.23-4,2.39-5,2.63-14.51l.32-10.12,97,.79h96.92l.4,10c.47,11.32,1.19,13.63,5.89,18.57,4.31,4.62,8,6.14,15.23,6.14s10.92-1.52,15.38-6.06c4.62-4.7,5.9-8.77,6.38-19.69s0-10.28,6.69-8.85a38.26,38.26,0,0,1,30.13,31.57c.48,3.11.8,28.93.8,28.93V342.7l-177.9.8H220.54V317.38s.32-30.61,4.3-38.9C229.07,270,241.18,261,250.91,259,258.32,257.6,257.84,256.88,258.16,268.31ZM576,446c0,101.62.08,98.51-4.94,108-3.11,5.9-9.25,12.19-14.75,15.14-8.93,4.86.32,4.62-158.45,4.62-157,0-148.33.24-157.34-4.38-5.5-2.79-12.83-10-15.54-15.38-4.62-9.17-4.46-5-4.46-106.73V353.8H576ZM27.66,543.9c0,.39-.4.23-.8-.4a5.43,5.43,0,0,1-.8-2c0-.47.4-.23.8.4A5,5,0,0,1,27.66,543.9ZM742.6,601.68c-.48.88-1,1.59-1.28,1.59s0-.71.48-1.59,1-1.59,1.28-1.59S743.08,600.8,742.6,601.68ZM74,629.31c1,1.27,1,1.35-.24.32S72,628,72.61,628A4.86,4.86,0,0,1,74,629.31Zm11.16,15.14c1,1.28,1,1.36-.24.32a4.85,4.85,0,0,1-1.43-1.35c0-.61.64-.21,1.67,1.06Zm598.5,33.16a14.64,14.64,0,0,1-2.15,2.23l-2.24,1.91,1.92-2.23c1.83-2,2.47-2.52,2.47-1.88ZM673.26,688a9.25,9.25,0,0,1-1.76,1.83l-1.83,1.51,1.51-1.84c1.44-1.63,2.08-2.11,2.08-1.47ZM544.93,769.86a5,5,0,0,1-2,.79c-.4,0-.24-.4.4-.79a5.43,5.43,0,0,1,2-.8C545.84,769.06,545.57,769.46,544.93,769.86Z" transform="translate(-0.17 0.04)"/><path class="cls-2" d="M244.77,385.6l-1.93,1.52v38.57l1.91,1.52c1.75,1.43,3.35,1.51,23.27,1.51,20.41,0,21.52-.08,23-1.59s1.59-2.63,1.59-20.72-.08-19.21-1.59-20.73-2.63-1.59-23-1.59C248.12,384.09,246.52,384.17,244.77,385.6Z" transform="translate(-0.17 0.04)"/><path class="cls-2" d="M310.13,385.6l-1.92,1.52v38.57l1.92,1.52c1.75,1.43,3.34,1.51,23.27,1.51,20.4,0,21.52-.08,23-1.59s1.6-2.63,1.6-20.72-.08-19.21-1.6-20.73-2.63-1.59-23-1.59C313.47,384.09,311.84,384.17,310.13,385.6Z" transform="translate(-0.17 0.04)"/><path class="cls-2" d="M375.48,385.6l-1.91,1.52v38.57l1.91,1.52c1.76,1.43,3.35,1.51,23.28,1.51,20.4,0,21.52-.08,23-1.59s1.59-2.63,1.59-20.72-.08-19.21-1.59-20.73-2.63-1.59-23-1.59C378.84,384.09,377.24,384.17,375.48,385.6Z" transform="translate(-0.17 0.04)"/><path class="cls-2" d="M440.84,385.6l-1.91,1.52v38.57l1.91,1.52c1.75,1.43,3.35,1.51,23.27,1.51,20.41,0,21.52-.08,23-1.59s1.59-2.63,1.59-20.72-.08-19.21-1.59-20.73-2.63-1.59-23-1.59C444.19,384.09,442.59,384.17,440.84,385.6Z" transform="translate(-0.17 0.04)"/><path class="cls-2" d="M505.48,386.08l-2,1.91v36.83l2,1.91,1.91,2H529c20.49,0,21.6-.08,23.12-1.59s1.59-2.63,1.59-20.56c0-18.81,0-19.05-1.83-20.73s-2.39-1.75-23.2-1.75H507.39Z" transform="translate(-0.17 0.04)"/><path class="cls-2" d="M245.49,443.07c-3,1.2-3.59,5.34-3.27,23.75.24,16.82.24,17.06,2.15,18.57,1.75,1.44,3.35,1.52,23.27,1.52,20.41,0,21.52-.08,23-1.6s1.59-2.63,1.59-20.56c0-10.36-.32-19.29-.64-19.77-1.59-2.39-4.38-2.71-24.23-2.63C256.33,442.31,246.44,442.67,245.49,443.07Z" transform="translate(-0.17 0.04)"/><path class="cls-2" d="M310.76,443.07c-3,1.28-3.42,4.06-3.18,23,.23,17.62.23,17.86,2.15,19.37,1.75,1.44,3.34,1.52,23.27,1.52,20.4,0,21.52-.08,23-1.6s1.6-2.63,1.6-20.56c0-10.36-.32-19.29-.64-19.77-1.59-2.39-4.38-2.71-24.23-2.63C321.68,442.31,311.84,442.67,310.76,443.07Z" transform="translate(-0.17 0.04)"/><path class="cls-2" d="M376.12,443.07c-3,1.28-3.43,4.06-3.19,23,.24,17.62.24,17.86,2.15,19.37s3.35,1.52,23.28,1.52c20.4,0,21.52-.08,23-1.6s1.6-2.63,1.6-20.64V445.54L420.88,444c-2-1.6-3-1.68-22.55-1.6C387.12,442.31,377.16,442.67,376.12,443.07Z" transform="translate(-0.17 0.04)"/><path class="cls-2" d="M440.44,443.79c-1.91,1.51-1.91,1.67-2.15,20.16-.24,18-.16,18.73,1.43,20.81l1.68,2.15h21.92c20.8,0,21.91-.08,23.43-1.6s1.59-2.63,1.59-20.64V445.54L486.27,444c-2-1.6-3.11-1.68-23-1.68C443.84,442.31,442.19,442.31,440.44,443.79Z" transform="translate(-0.17 0.04)"/><path class="cls-2" d="M506.91,443.07c-3.1,1.28-3.42,3.11-3.42,21.76,0,16.9.08,18,1.67,20l1.59,2.08h21.92c20.81,0,21.92-.08,23.44-1.6s1.59-2.63,1.59-20.64V445.54L551.63,444c-2-1.6-3-1.68-22.56-1.6C517.84,442.31,507.84,442.67,506.91,443.07Z" transform="translate(-0.17 0.04)"/><path class="cls-2" d="M245.41,501.41c-2.95,1.52-3.51,5.34-3.19,23.44.24,15.3.4,17,1.75,18.57,1.52,1.59,2.15,1.67,23.12,1.67,18.33,0,21.91-.16,23.43-1.27,1.75-1.2,1.75-1.44,1.75-20.57,0-18.65-.08-19.45-1.67-20.88s-3.27-1.51-22.56-1.67C254.09,500.62,246.68,500.86,245.41,501.41Z" transform="translate(-0.17 0.04)"/><path class="cls-2" d="M310.44,501.65c-2.94,1.68-3.18,3.51-2.86,23.2.23,15.3.39,17,1.75,18.57s2.15,1.67,23.35,1.67c20.72,0,21.84-.08,23.35-1.59s1.6-2.63,1.6-20.57c0-18.33-.08-19.13-1.67-20.56s-3.27-1.51-22.56-1.67C316.18,500.54,312.2,500.7,310.44,501.65Z" transform="translate(-0.17 0.04)"/><path class="cls-2" d="M375.84,501.65c-2.95,1.68-3.19,3.51-2.87,23.2.24,15.3.4,17,1.76,18.57s2.15,1.67,23.35,1.67c20.72,0,21.84-.08,23.35-1.59s1.6-2.63,1.6-20.57c0-18.33-.08-19.13-1.68-20.56s-3.27-1.51-22.55-1.67C381.54,500.54,377.56,500.7,375.84,501.65Z" transform="translate(-0.17 0.04)"/><path class="cls-2" d="M441.48,501.25a5.51,5.51,0,0,0-2.55,2.79c-.48,1.2-.8,9.89-.8,19.45,0,16.42.08,17.54,1.67,19.53l1.6,2.07h21.92c20.8,0,21.91-.08,23.43-1.59s1.59-2.63,1.59-20.57c0-18.33-.08-19.13-1.67-20.56s-3.27-1.51-22.56-1.67C452.64,500.62,442.51,500.86,441.48,501.25Z" transform="translate(-0.17 0.04)"/><path class="cls-2" d="M506.84,501.25a5.55,5.55,0,0,0-2.55,2.79c-.47,1.2-.79,9.89-.79,19.45,0,16.42.08,17.54,1.67,19.53l1.59,2.07h21.92c20.81,0,21.92-.08,23.44-1.59s1.59-2.63,1.59-20.57c0-18.33-.08-19.13-1.67-20.56s-3.27-1.51-22.56-1.67C518,500.62,507.84,500.86,506.84,501.25Z" transform="translate(-0.17 0.04)"/><path class="cls-2" d="M455.51,2.07A1.59,1.59,0,0,0,457,2c.32-.24-.16-.48-1-.4S454.84,1.83,455.51,2.07Z" transform="translate(-0.17 0.04)"/><path class="cls-2" d="M336,2.87a1.59,1.59,0,0,0,1.51-.08c.32-.24-.16-.48-1-.4S335.31,2.63,336,2.87Z" transform="translate(-0.17 0.04)"/><path class="cls-2" d="M460.29,2.87a1.59,1.59,0,0,0,1.51-.08c.32-.24-.16-.48-1-.4S459.65,2.63,460.29,2.87Z" transform="translate(-0.17 0.04)"/><path class="cls-2" d="M332,3.66a1.61,1.61,0,0,0,1.52-.08c.32-.24-.16-.47-1-.4S331.33,3.42,332,3.66Z" transform="translate(-0.17 0.04)"/><path class="cls-2" d="M465.07,3.66a1.59,1.59,0,0,0,1.51-.08c.32-.24-.16-.47-1-.4S464.43,3.42,465.07,3.66Z" transform="translate(-0.17 0.04)"/><path class="cls-2" d="M327.18,4.46a1.61,1.61,0,0,0,1.52-.08c.32-.24-.16-.48-1-.4S326.54,4.22,327.18,4.46Z" transform="translate(-0.17 0.04)"/><path class="cls-2" d="M469.05,4.46a1.61,1.61,0,0,0,1.52-.08c.32-.24-.16-.48-1-.4S468.42,4.22,469.05,4.46Z" transform="translate(-0.17 0.04)"/><path class="cls-2" d="M323.2,5.31a4.23,4.23,0,0,0,2,0c.48-.24.08-.4-1-.4S322.64,5,323.2,5.31Z" transform="translate(-0.17 0.04)"/><path class="cls-2" d="M473,5.31a1.59,1.59,0,0,0,1.51-.08c.32-.24-.15-.48-1-.4S472.4,5,473,5.31Z" transform="translate(-0.17 0.04)"/><path class="cls-2" d="M319.21,6.05a4.23,4.23,0,0,0,2,0c.48-.23.08-.39-1-.39S318.65,5.82,319.21,6.05Z" transform="translate(-0.17 0.04)"/><path class="cls-2" d="M477,6.05A1.59,1.59,0,0,0,478.54,6c.32-.23-.16-.47-1-.39S476.39,5.82,477,6.05Z" transform="translate(-0.17 0.04)"/><path class="cls-2" d="M282.71,15.06c-1.44,1-.16,1,2,0,1-.48,1.2-.72.4-.72A5.49,5.49,0,0,0,282.71,15.06Z" transform="translate(-0.17 0.04)"/><path class="cls-2" d="M63.76,179.41c-1.19,1.59-2,3-1.59,3,.24,0,.95-.88,1.67-2C65.2,178.37,65.12,177.66,63.76,179.41Z" transform="translate(-0.17 0.04)"/><path class="cls-2" d="M754.24,215.36c.23.79.71,1.19,1,.95s0-.87-.56-1.43C753.84,214.16,753.76,214.24,754.24,215.36Z" transform="translate(-0.17 0.04)"/><path class="cls-2" d="M761.73,230.58c0,.88,2.39,5.26,2.87,5.26.16,0-.24-1.2-1-2.63C762.13,230.31,761.73,229.7,761.73,230.58Z" transform="translate(-0.17 0.04)"/><path class="cls-2" d="M772.89,257a5.24,5.24,0,0,0,.79,2c.4.64.8.8.8.4a5,5,0,0,0-.8-2C773.28,256.72,772.89,256.48,772.89,257Z" transform="translate(-0.17 0.04)"/><path class="cls-2" d="M780.22,278.08a17.76,17.76,0,0,0,1,4c.56,1.51,1,2.23,1,1.59a17.24,17.24,0,0,0-1-4C780.7,278.16,780.22,277.45,780.22,278.08Z" transform="translate(-0.17 0.04)"/><path class="cls-2" d="M790.5,318.41c0,.88.24,1.12.48.48a1.59,1.59,0,0,0-.08-1.51C790.66,317.06,790.42,317.54,790.5,318.41Z" transform="translate(-0.17 0.04)"/><path class="cls-2" d="M791.38,321.92c0,1.12.16,1.51.4,1a4.5,4.5,0,0,0,0-2C791.54,320.41,791.38,320.8,791.38,321.92Z" transform="translate(-0.17 0.04)"/><path class="cls-2" d="M5.42,324.79c0,.88.24,1.12.48.48a1.61,1.61,0,0,0-.08-1.52C5.58,323.43,5.34,323.91,5.42,324.79Z" transform="translate(-0.17 0.04)"/><path class="cls-2" d="M792.17,325.91c0,1.11.16,1.51.4.95a4.23,4.23,0,0,0,0-2C792.33,324.39,792.17,324.79,792.17,325.91Z" transform="translate(-0.17 0.04)"/><path class="cls-2" d="M4.62,328.77c0,.88.24,1.12.48.48A1.59,1.59,0,0,0,5,327.74C4.78,327.42,4.54,327.9,4.62,328.77Z" transform="translate(-0.17 0.04)"/><path class="cls-2" d="M792.89,330.37c0,.88.24,1.11.48.48a1.61,1.61,0,0,0-.08-1.52C793.05,329,792.84,329.49,792.89,330.37Z" transform="translate(-0.17 0.04)"/><path class="cls-2" d="M3.84,332.76c0,.88.24,1.12.48.48a1.61,1.61,0,0,0-.08-1.52C4,331.41,3.74,331.88,3.84,332.76Z" transform="translate(-0.17 0.04)"/><path class="cls-2" d="M3,337.54c0,.88.24,1.12.48.48a1.64,1.64,0,0,0-.08-1.51C3.19,336.19,3,336.67,3,337.54Z" transform="translate(-0.17 0.04)"/><path class="cls-2" d="M2.23,342.31c0,.88.24,1.12.48.48a1.59,1.59,0,0,0-.08-1.51C2.39,341,2.15,341.45,2.23,342.31Z" transform="translate(-0.17 0.04)"/><path class="cls-2" d="M2.23,453.91c0,.88.24,1.12.48.48a1.61,1.61,0,0,0-.08-1.52C2.39,452.55,2.15,453,2.23,453.91Z" transform="translate(-0.17 0.04)"/><path class="cls-2" d="M794.49,457.1c0,.87.23,1.11.47.48a1.61,1.61,0,0,0-.08-1.52C794.64,455.74,794.41,456.22,794.49,457.1Z" transform="translate(-0.17 0.04)"/><path class="cls-2" d="M3,458.69c0,.88.24,1.12.48.48a1.64,1.64,0,0,0-.08-1.51C3.19,457.31,3,457.82,3,458.69Z" transform="translate(-0.17 0.04)"/><path class="cls-2" d="M3.84,463.47c0,.88.24,1.12.48.48a1.59,1.59,0,0,0-.08-1.51C4,462.12,3.74,462.6,3.84,463.47Z" transform="translate(-0.17 0.04)"/><path class="cls-2" d="M792.89,465.87c0,.87.24,1.11.48.47a1.59,1.59,0,0,0-.08-1.51C793.05,464.51,792.84,465,792.89,465.87Z" transform="translate(-0.17 0.04)"/><path class="cls-2" d="M4.7,467.78c0,1.11.16,1.51.4,1a4.23,4.23,0,0,0,0-2C4.84,466.31,4.7,466.66,4.7,467.78Z" transform="translate(-0.17 0.04)"/><path class="cls-2" d="M792.17,470.17c0,1.12.16,1.51.4,1a4.23,4.23,0,0,0,0-2C792.33,468.65,792.17,469.05,792.17,470.17Z" transform="translate(-0.17 0.04)"/><path class="cls-2" d="M5.42,471.44c0,.88.24,1.12.48.48a1.59,1.59,0,0,0-.08-1.51C5.58,470.09,5.34,470.57,5.42,471.44Z" transform="translate(-0.17 0.04)"/><path class="cls-2" d="M791.38,474.15c0,1.12.16,1.52.4,1a4.5,4.5,0,0,0,0-2C791.54,472.64,791.38,473,791.38,474.15Z" transform="translate(-0.17 0.04)"/><path class="cls-2" d="M790.5,477.82c0,.88.24,1.12.48.48a1.61,1.61,0,0,0-.08-1.52C790.66,476.47,790.42,476.94,790.5,477.82Z" transform="translate(-0.17 0.04)"/><path class="cls-2" d="M753.52,582.15c-.72,1.52-1.2,2.79-1,2.79.56,0,3-4.86,2.63-5.26C755,579.52,754.24,580.64,753.52,582.15Z" transform="translate(-0.17 0.04)"/><path class="cls-2" d="M43.6,582.55c.47.88,1,1.6,1.27,1.6s0-.72-.48-1.6-1-1.59-1.27-1.59S43.12,581.67,43.6,582.55Z" transform="translate(-0.17 0.04)"/><path class="cls-2" d="M211,751.05a7.85,7.85,0,0,0,2.4,1.67,5.4,5.4,0,0,0,2.39.88,7.25,7.25,0,0,0-2.39-1.68C212,751.24,211,750.89,211,751.05Z" transform="translate(-0.17 0.04)"/><path class="cls-2" d="M282.71,781a5.45,5.45,0,0,0,2.39.72c.8,0,.64-.24-.4-.72C282.55,780.06,281.27,780.06,282.71,781Z" transform="translate(-0.17 0.04)"/><path class="cls-2" d="M323.2,791.14a4.23,4.23,0,0,0,2,0c.48-.24.08-.4-1-.4S322.64,790.9,323.2,791.14Z" transform="translate(-0.17 0.04)"/><path class="cls-2" d="M473,791.14a1.59,1.59,0,0,0,1.51-.08c.32-.24-.15-.48-1-.4S472.4,790.9,473,791.14Z" transform="translate(-0.17 0.04)"/><path class="cls-2" d="M327.18,791.93a4.23,4.23,0,0,0,2,0c.48-.24.08-.4-1-.4S326.62,791.69,327.18,791.93Z" transform="translate(-0.17 0.04)"/><path class="cls-2" d="M469.05,791.93a1.61,1.61,0,0,0,1.52-.08c.32-.24-.16-.47-1-.39S468.42,791.69,469.05,791.93Z" transform="translate(-0.17 0.04)"/><path class="cls-2" d="M331.17,792.73a4.23,4.23,0,0,0,2,0c.48-.24.08-.4-1-.4S330.61,792.49,331.17,792.73Z" transform="translate(-0.17 0.04)"/><path class="cls-2" d="M464.27,792.73a4.23,4.23,0,0,0,2,0c.47-.24.08-.4-1-.4S463.71,792.49,464.27,792.73Z" transform="translate(-0.17 0.04)"/><path class="cls-2" d="M336,793.53a4.23,4.23,0,0,0,2,0c.48-.24.08-.4-1-.4S335.39,793.31,336,793.53Z" transform="translate(-0.17 0.04)"/><path class="cls-2" d="M460.29,793.53a1.59,1.59,0,0,0,1.51-.08c.32-.24-.16-.48-1-.4S459.65,793.31,460.29,793.53Z" transform="translate(-0.17 0.04)"/><path class="cls-2" d="M341.53,794.31a1.59,1.59,0,0,0,1.51-.08c.32-.23-.16-.47-1-.39S340.89,794.09,341.53,794.31Z" transform="translate(-0.17 0.04)"/><path class="cls-2" d="M455.51,794.31a1.59,1.59,0,0,0,1.51-.08c.32-.23-.16-.47-1-.39S454.84,794.09,455.51,794.31Z" transform="translate(-0.17 0.04)"/><path class="cls-2" d="M449.93,795.12a1.59,1.59,0,0,0,1.51-.08c.32-.24-.16-.48-1-.4S449.29,794.88,449.93,795.12Z" transform="translate(-0.17 0.04)"/></svg>