<svg id="Layer_1" data-name="Layer 1" xmlns="http://www.w3.org/2000/svg" viewBox="0 0 407.1 406.64"><defs><style>.cls-1{fill:#fff;stroke:#000;stroke-miterlimit:10;}.cls-2{fill:#1a74e2;}</style></defs><rect class="cls-1" x="54" y="90" width="299" height="230"/><path class="cls-2" d="M185.1.23c-1.38.2-6.4.89-11.32,1.48-18.6,2.26-41.14,9.35-60.63,19A203.71,203.71,0,0,0,5.47,155.26c-7.29,30-7.29,66.24,0,96.26C24.86,331.05,89,390.6,170.83,404.87c13.78,2.36,51,2.36,65,0a217.58,217.58,0,0,0,39.27-10.43C336.23,371.5,383,320.44,400,258c5.61-20.48,7.09-31.6,7.09-54.63s-1.48-34.16-7.09-54.63C381.37,80.55,327.23,26.22,258.72,6.93,242.09,2.3,228.41.43,207.25.13,196.42-.06,186.53-.06,185.1.23Zm53.05,118.09c1.77,2.26,2.07,4,2.07,11.32v8.76h25.59c21.06,0,26.18.29,28.54,1.48,6.11,3.16,5.91.59,5.91,76v68.63l-3.35,3.81L293.53,292l-88.69.3c-97.83.3-93.6.49-97.54-5.92-1.87-3.16-2-4.84-2-70.71,0-73.36-.19-70.6,5.51-75.14,2.56-2,3.74-2.07,28.45-2.07h25.89l.39-9.26c.49-14.47-2.46-13.38,37.3-13.38h33.27Z" transform="translate(0 0)"/><path class="cls-2" d="M181.17,129.89a12.92,12.92,0,0,0-.18,4.47l.28,3.08,21.84,1h24.31v-9.85H204.58C185.74,128.58,181.53,128.86,181.17,129.89Z" transform="translate(0 0)"/><path class="cls-2" d="M117.18,168v16.74H288.45V151.22H117.18Z" transform="translate(0 0)"/><path class="cls-2" d="M117.18,238.32v40.85H288.45v-81.7l-33.17.2c-32.38.3-33.27.39-33.57,2.26-1,5-2.36,5.42-18.6,5.42-13.78,0-15.25-.2-17-2a6.77,6.77,0,0,1-2-3.94c0-2-.69-2-33.47-2H117.18Z" transform="translate(0 0)"/></svg>