<svg id="Layer_1" data-name="Layer 1" xmlns="http://www.w3.org/2000/svg" viewBox="0 0 310.42 310.54"><defs><style>.cls-1{fill:#fff;stroke:#000;stroke-miterlimit:10;}.cls-2{fill:#1a74e2;}</style></defs><ellipse class="cls-1" cx="158.15" cy="157.88" rx="131.85" ry="136.25"/><path class="cls-2" d="M132.38.66A157.12,157.12,0,0,0,24.43,69.87C13.82,86.12,6.72,103.29,2.25,123.4.25,132.29,0,136.05,0,155.29c0,23.55,1.07,31.53,6.91,49.44,8.18,25.12,26.18,52,46.24,68.92,20.53,17.42,43.21,28.61,70.17,34.65,8.86,1.94,12.66,2.24,31.93,2.24s23.07-.3,31.93-2.24a151.83,151.83,0,0,0,35-11.88c44.48-21.22,75-60,86-109.21,1.95-8.86,2.24-12.55,2.24-31.92s-.17-23-2.17-31.89c-11-49.25-41.75-88.28-86-109.21A145.71,145.71,0,0,0,189.35,2.8C180.49.66,176.4.37,158.69.08,147.46-.12,135.59.08,132.38.66Zm35,37.09C178.47,40.47,190.74,50.5,196,61c4.09,8.17,5.36,15.18,4.68,26.38-.59,9.34-.59,9.34,1.85,9.92,3.21.88,6.22,6,6.22,10.61,0,6.14-5.74,23.07-8.85,26.19-1.46,1.55-3.31,2.72-4.09,2.72s-1.75,1.17-2.05,2.53a60.62,60.62,0,0,1-5.06,10.13c-2.33,4.08-4.28,8.17-4.28,9s2.24,3.31,5,5.65c3.8,3.11,8.18,5.35,17.82,9,28.71,10.81,34.55,16.16,38.15,34.65,1.75,9.06,2.05,28.42.59,33.78-1.37,4.67-5.75,9.54-11.1,12.26-11.49,5.84-40.88,8.18-91.79,7.4C78,260.11,66.19,256,63.66,233.83A111.38,111.38,0,0,1,63.85,217c2.34-25.21,8.18-31.83,38.35-43.22,13.24-5,23.75-11.29,25.21-15.08.29-.78-1.65-5-4.38-9.25a99.6,99.6,0,0,1-5.78-10.27c-.49-1.27-1.36-2.34-1.85-2.34s-2.15-1.17-3.85-2.54c-2.34-1.94-3.7-4.67-6.14-12.36-1.65-5.45-3-11.78-3-14.11a11.7,11.7,0,0,1,6.13-10.61c2-1.07,2.14-1.56,2-12.17C110.35,73,111.71,66.45,116,59c10.45-18,30.79-26.36,51.43-21.29Z" transform="translate(0 0)"/><path class="cls-2" d="M146.25,47.67a36.88,36.88,0,0,0-22.48,20c-2.82,6-3.41,15.28-1.85,29,.68,6.33.58,7.21-1.16,9a8,8,0,0,1-4.93,2c-3.64,0-3.66.74-.24,11.2,2.63,7.69,2.63,7.78,5.94,7.78,3.12,0,3.31.29,4.38,4.48.68,2.53,3.8,8.76,6.91,13.92,6.33,10.41,6.91,13.92,3.51,19.47s-13.44,12.36-24,16.35C77.54,194.29,75.39,196.6,74.25,223c-.78,17.23,1.75,21.22,15.08,24.24,15.58,3.51,60.16,5.16,95.1,3.6,36.4-1.65,48.76-4.38,51.59-11.19,2.72-6.62,1-30.76-2.92-40.1-2-4.87-10.32-9.74-27.84-16.36-12.56-4.77-16.06-6.52-21.51-11-6.33-5.16-9.54-10.13-9.54-14.9,0-1.07,2.43-6.13,5.35-11.39s5.84-11.77,6.43-14.69c1.17-5.16,1.26-5.16,4.57-4.87l3.31.29,2.82-8.76c1.46-4.86,2.73-9.24,2.73-9.73.1-.68-1.27-.88-3.12-.68-5.54.68-6-.88-6-19.66V71.13L187,65c-6.13-11.39-16.16-17.62-29.1-18.3A33.57,33.57,0,0,0,146.25,47.67Zm16.3,128c3.31.58,3.89,1,3.6,2.92-.1,1.27-2,4.87-4,7.88l-3.8,5.55,3.8,17.42c2,9.54,4,20.06,4.38,23.27.58,5.94.58,5.94-2.92,9-6.13,5.35-10.61,5.35-16.74,0-3.5-3.11-3.5-3.21-2.92-9,.29-3.21,2.24-13.63,4.38-23.17l3.7-17.32-4.28-6.43c-4.68-7-5-9.15-1.27-10.12C149.7,174.79,157.78,174.7,162.55,175.67Z" transform="translate(0 0)"/></svg>