<svg id="Layer_1" data-name="Layer 1" xmlns="http://www.w3.org/2000/svg" viewBox="0 0 517.3 517.46"><defs><style>.cls-1{fill:#fff;stroke:#000;stroke-miterlimit:10;}.cls-2{fill:#1a74e2;}</style></defs><circle class="cls-1" cx="263.16" cy="252.07" r="230.16"/><path class="cls-2" d="M235.12.62c-80.6,7.8-150.8,50.2-194.7,117.6C22,146.52,9,179.72,2.62,214.62c-2.4,13.5-2.6,16.6-2.6,44-.1,26.7.1,30.7,2.3,42.5,10,56,33.8,102.1,72.6,141s88.6,64.2,144,73c13.6,2.2,50,3.1,65.1,1.6a259.63,259.63,0,0,0,219.3-173.4c19.2-55.6,18.6-118.5-1.7-173.7-32.5-88.8-111.5-153-205.6-167.1C281,.32,248.92-.78,235.12.62Zm58.7,59.6,4.9.7-.6,12.2-.6,12.3,3.2,1.3a63.21,63.21,0,0,1,6.8,3.5l3.7,2.3,10-7,10-6.9,6.8,8.3c3.7,4.5,7.4,9,8.2,10,1.5,1.6.9,2.4-7.2,10.6-6.2,6.2-8.6,9.3-8,10.2a67,67,0,0,1,2.4,7.3l1.5,6,11.4,2.3c6.3,1.3,11.6,2.5,11.9,2.8s-.1,6-.9,12.8l-1.4,12.2-12.2.3-12.1.3-3.6,6.5-3.6,6.5,6.5,9.8c3.6,5.4,6.5,10.2,6.4,10.7s-4.6,4.4-10.1,8.8l-10.1,7.9-8.2-8.9-8.2-8.9-3.4,1.2c-1.9.6-5.3,1.6-7.5,2.2l-4.1,1.1-2.3,11.6-2.3,11.7-11.5-.8c-6.3-.3-12.1-.9-12.8-1.2-1.1-.4-1.4-3.3-1.4-12.7v-12.1l-6.3-3.3c-3.5-1.7-6.6-3.2-6.9-3.2a111.65,111.65,0,0,0-10.2,6c-5.2,3.3-10,6-10.4,6s-4.5-4.3-8.7-9.6l-7.8-9.5,8.7-8.8,8.7-8.7-1.6-4.3a29.45,29.45,0,0,1-1.5-6c0-3.2-1.7-4-12.9-6.2-7-1.4-11.5-2.8-11.8-3.7-.3-.7,0-6.7.7-13.3l1.3-11.9h25.2l3.2-6.6,3.3-6.5-6.6-10.1c-3.6-5.5-6.2-10.4-5.7-10.8,7.1-6.1,18.4-15,19-15s4.6,3.8,9.2,8.4l8.4,8.4,4.1-1.8a64.37,64.37,0,0,1,7.4-2.5c1.8-.3,3.2-1.3,3.2-2s1-6,2.2-11.6l2.1-10.2,8.6.6C285,59.32,291.12,59.92,293.82,60.22ZM219.3,208.35,234.42,210v34.48l5,2.5c3,1.4,7.5,3.7,10,5.2l4.5,2.6,13.9-9.6c7.7-5.3,14.2-9.6,14.6-9.6s18.2,21.3,21.9,26.3c1.2,1.8.4,2.9-11,14.3L281,288.52l2.2,6.3a67.06,67.06,0,0,1,2.8,10.9l.6,4.5,17.4,3.4,17.4,3.4-.1,3.1c0,1.6-.8,9.7-1.7,18l-1.7,14.5-17.6,1-16.6.2-2.3,4.8a102.65,102.65,0,0,1-5.25,8.95c-1.61,2.39-2.92,4.68-2.92,5.27s4.13,7.07,9.17,14.53,9.28,14.13,9.38,14.83c.1,1-27.32,23.18-28.74,23.28-.3,0-5.94-5.57-12.4-12.34L238.87,400.7l-5.35,1.9a102.67,102.67,0,0,1-10.89,2.88l-5.55,1.14-3.33,16.12c-1.81,8.86-3.63,16.52-4,17-.71.7-24.81-.7-33-2l-3.33-.5V402.08L164,397.3a94.68,94.68,0,0,0-10-4.68c-.5,0-7.46,4.08-15.53,9.16-14.62,9-14.72,9.15-16.33,7.06-1-1.19-6.25-7.56-11.7-14.22l-10-12L113.09,370l12.6-12.64-2.82-8.46c-1.52-4.67-2.83-9.15-2.93-10.05,0-1.29-3.43-2.28-17.24-5C93.22,331.94,85.26,330,85,329.35s.4-9,1.41-18.51l1.95-17.22h36.3l4.84-9.75c2.62-5.27,4.64-10.05,4.44-10.45s-4.34-7-9.28-14.53c-7.56-11.44-8.77-13.83-7.56-14.92,1.51-1.3,22.38-18.11,25.41-20.4,1.71-1.29,2.92-.3,14.41,11l12.54,12.18,3.22-1.29c1.82-.7,6.56-2.29,10.49-3.48l7.26-2.09L193.62,224c1.81-8.76,3.42-16.22,3.73-16.72C197.92,206.26,201.75,206.46,219.3,208.35Zm179.92,30.09c2.1.6,2.2,1.1,2.2,10v9.92l5.1,2.7,5.2,2.7,7.3-5.1c4-2.7,7.5-5,7.7-5a71,71,0,0,1,6.8,7.6l6.2,7.6-6.6,6.6-6.6,6.7,1.4,4a33,33,0,0,1,1.5,5.7c0,1.6,3.6,2.7,14,4.4,3.9.6,4,.7,4,4.9,0,2.3-.3,7-.6,10.4l-.7,6.1h-19.2l-2.6,5-2.6,4.9,5.3,8,5.3,7.9-6.1,4.8c-10.9,8.6-9.1,8.5-16.6,1.2l-6.7-6.5-5.4,1.6c-3,.9-5.6,2.1-5.7,2.6s-1,4.5-1.9,8.7l-1.7,7.8h-5.3c-2.9,0-7.3-.3-9.9-.6l-4.6-.71v-9.73l-.1-9.66-4.7-2.31a28.66,28.66,0,0,0-5.7-2.22c-.5,0-4.1,2.12-7.9,4.53s-7.2,4.53-7.6,4.53-3.6-3.42-7-7.65l-6.3-7.65,6.7-6.74,6.7-6.74-1.3-5a45,45,0,0,0-1.5-5.34,80.45,80.45,0,0,0-8.8-2.11c-4.7-1-8.9-2-9.2-2.41s-.2-5,.3-10.37l.9-9.86h19.4l2.5-5,2.5-4.93-5-8-5-7.85,2.3-1.81c1.3-1.11,4.8-3.93,7.8-6.54l5.5-4.53,6.7,6.64,6.7,6.74,5.5-1.91,5.4-1.91,1.8-9,1.7-9.05,8.1.6A86.8,86.8,0,0,1,399.22,238.44Z" transform="translate(0 0)"/><path class="cls-2" d="M266.32,119.62c-13,6.9-16.5,24.1-7.2,34.9,4.9,5.8,9.9,8.1,17.3,8.1,9.7,0,15.7-3.7,20.3-12.5,2.6-5,2.8-15.5.5-20-2-3.8-7.3-8.8-11.5-10.9C281.22,116.92,270.92,117.12,266.32,119.62Z" transform="translate(0 0)"/><path class="cls-2" d="M196.72,290.62a34.31,34.31,0,0,0-23,17.8c-3.6,7.7-3.9,21.1-.6,28.4a36.88,36.88,0,0,0,16.2,16.5c4.9,2.4,6.8,2.8,14.6,2.8,7.5,0,9.8-.4,13.8-2.4,6.4-3.1,12.3-9.3,15.6-16.1,2.2-4.7,2.6-6.8,2.6-15,0-8.4-.3-10.1-2.7-14.6a35.33,35.33,0,0,0-19.5-16.4C206.82,289.52,203.52,289.32,196.72,290.62Z" transform="translate(0 0)"/><path class="cls-2" d="M376.82,285c-7.1,3.1-11.2,13.7-8.5,21.9,2.4,7.1,12.1,12.7,19.4,11.2,13.1-2.7,18.6-18.4,10-28.5a20.16,20.16,0,0,0-5.4-4.5C388.82,283.22,380.92,283.22,376.82,285Z" transform="translate(0 0)"/></svg>